<svg width="320" height="320" viewBox="0 0 320 320" fill="none" xmlns="http://www.w3.org/2000/svg">
<rect width="320" height="320" rx="160" fill="#4F46E5"/>
<circle cx="160" cy="160" r="160" fill="#4F46E5"/>
<path d="M168.228 172.8C164.571 209.371 145.362 223.886 137.133 226.324C151.762 194.873 155.124 154.514 154.514 138.971L168.228 172.8Z" fill="white"/>
<rect x="64" y="100.455" width="44.4549" height="143.948" rx="22.2275" transform="rotate(-21.567 64 100.455)" fill="white"/>
<rect x="138.102" y="100.831" width="44.4549" height="143.948" rx="22.2275" transform="rotate(-21.567 138.102 100.831)" fill="white"/>
<circle cx="237.759" cy="112.833" r="21.0286" fill="white"/>
<path d="M241.372 172.8C237.714 209.371 218.506 224.593 210.278 227.032C217.852 210.746 222.406 191.883 224.951 175.32C226.037 168.256 238.686 166.177 241.372 172.8Z" fill="white"/>
<path d="M239.532 121.281C227.85 122.871 224.914 111.834 224.914 106.057C238.134 106.55 241.056 116.181 239.988 120.877C239.939 121.093 239.751 121.251 239.532 121.281Z" fill="#4F46E5"/>
<path d="M242.139 120.92C250.015 120.502 250.514 113.96 250.514 109.7C241.497 111.086 240.972 117.312 241.854 120.716C241.886 120.843 242.008 120.927 242.139 120.92Z" fill="#4F46E5"/>
</svg>
